<svg xmlns="http://www.w3.org/2000/svg" width="32" height="32" viewBox="0 0 48 48" fill="none">
  <defs>
    <linearGradient id="fg" x1="0" y1="0" x2="48" y2="48">
      <stop offset="0%" stop-color="#0D6B3B"/>
      <stop offset="100%" stop-color="#16A34A"/>
    </linearGradient>
  </defs>
  <rect width="48" height="48" rx="13" fill="url(#fg)"/>
  <circle cx="24" cy="22" r="16" stroke="white" stroke-width="2" opacity="0.2" fill="none" stroke-dasharray="80 20"/>
  <circle cx="24" cy="22" r="16" stroke="white" stroke-width="2.5" opacity="0.6" fill="none" stroke-dasharray="67 100.5" stroke-linecap="round" transform="rotate(-90 24 22)"/>
  <g transform="translate(8,7) scale(1.35)">
    <path fill="white" d="M12 4c1.11 0 2 .89 2 2s-.89 2-2 2s-2-.89-2-2s.9-2 2-2m9 12v-2c-2.24 0-4.16-.96-5.6-2.68l-1.34-1.6A1.98 1.98 0 0 0 12.53 9H11.5c-.61 0-1.17.26-1.55.72l-1.34 1.6C7.16 13.04 5.24 14 3 14v2c2.77 0 5.19-1.17 7-3.25V15l-3.88 1.55c-.67.27-1.12.95-1.12 1.66C5 19.2 5.8 20 6.79 20H9v-.5a2.5 2.5 0 0 1 2.5-2.5h3c.28 0 .5.22.5.5s-.22.5-.5.5h-3c-.83 0-1.5.67-1.5 1.5v.5h7.21c.99 0 1.79-.8 1.79-1.79c0-.71-.45-1.39-1.12-1.66L14 15v-2.25c1.81 2.08 4.23 3.25 7 3.25"/>
  </g>
</svg>
